<svg width="79" height="26" viewBox="0 0 79 26" fill="none" xmlns="http://www.w3.org/2000/svg">
<path d="M66.4706 15.6C67.8543 15.6 68.9764 14.4354 68.9764 12.9998C68.9764 11.5637 67.8543 10.3995 66.4706 10.3995C65.0873 10.3995 63.9652 11.5637 63.9652 12.9998C63.9652 14.4354 65.0873 15.6 66.4706 15.6Z" fill="#F58220"/>
<path d="M24.2145 25.22H32.2189V12.0881L38.4283 20.9979L44.6005 12.0881V25.22H52.6065V0.779999H45.2453L38.4283 10.6211L31.6084 0.779999H24.2145V25.22Z" fill="white"/>
<path d="M22.5468 8.98283V2.09754C19.7235 0.700066 16.9374 4.19617e-05 13.972 4.19617e-05C9.79273 4.19617e-05 6.53841 1.14015 3.89494 3.6816C1.2866 6.18574 0 9.27794 0 12.9973C0 16.717 1.2866 19.7714 3.89494 22.276C6.43178 24.7064 9.68486 26 13.4699 26C16.8159 26 19.7524 25.33 22.5468 23.8618V16.9362C20.0806 18.5576 17.688 19.3687 15.116 19.3687C11.0421 19.3687 8.39784 16.7899 8.39784 12.9599C8.39784 9.20374 11.0421 6.59151 15.116 6.59151C17.688 6.59151 20.0806 7.36317 22.5468 8.98283Z" fill="white"/>
<path d="M66.4729 -4.57764e-05C59.5559 -4.57764e-05 53.9482 5.82191 53.9482 13.0006C53.9482 20.178 59.5559 26 66.4729 26C73.3886 26 79 20.178 79 13.0006C79 5.82191 73.3886 -4.57764e-05 66.4729 -4.57764e-05ZM66.4729 18.2015C63.7058 18.2015 61.462 15.8732 61.462 13.0006C61.462 10.1289 63.7058 7.80017 66.4729 7.80017C69.2403 7.80017 71.4842 10.1289 71.4842 13.0006C71.4842 15.8732 69.2403 18.2015 66.4729 18.2015Z" fill="white"/>
</svg>
