<svg width="79" height="26" viewBox="0 0 79 26" fill="none" xmlns="http://www.w3.org/2000/svg">
<path d="M66.3322 15.5C67.7131 15.5 68.8329 14.3802 68.8329 12.9998C68.8329 11.6189 67.7131 10.4996 66.3322 10.4996C64.9518 10.4996 63.832 11.6189 63.832 12.9998C63.832 14.3802 64.9518 15.5 66.3322 15.5Z" fill="#F58220"/>
<path d="M24.1641 24.75H32.1518V12.1232L38.3483 20.6904L44.5077 12.1232V24.75H52.497V1.25H45.1511L38.3483 10.7126L31.5426 1.25H24.1641V24.75Z" fill="#00375A"/>
<path d="M22.4998 9.13735V2.51687C19.6825 1.17314 16.9022 0.500038 13.9429 0.500038C9.77235 0.500038 6.5248 1.5963 3.88683 4.04001C1.28392 6.44783 0 9.42111 0 12.9974C0 16.5741 1.28392 19.511 3.88683 21.9193C6.41839 24.2562 9.6647 25.5001 13.4418 25.5001C16.7809 25.5001 19.7113 24.8558 22.4998 23.4441V16.7848C20.0388 18.3438 17.6512 19.1238 15.0846 19.1238C11.0192 19.1238 8.38036 16.6442 8.38036 12.9615C8.38036 9.34976 11.0192 6.838 15.0846 6.838C17.6512 6.838 20.0388 7.57998 22.4998 9.13735Z" fill="#00375A"/>
<path d="M66.3326 0.499954C59.43 0.499954 53.834 6.098 53.834 13.0006C53.834 19.902 59.43 25.5 66.3326 25.5C73.2339 25.5 78.8336 19.902 78.8336 13.0006C78.8336 6.098 73.2339 0.499954 66.3326 0.499954ZM66.3326 18.0014C63.5713 18.0014 61.3321 15.7627 61.3321 13.0006C61.3321 10.2393 63.5713 8.00017 66.3326 8.00017C69.0943 8.00017 71.3334 10.2393 71.3334 13.0006C71.3334 15.7627 69.0943 18.0014 66.3326 18.0014Z" fill="#00375A"/>
</svg>
