<svg width="100" height="47" viewBox="0 0 100 47" fill="none" xmlns="http://www.w3.org/2000/svg">
<path d="M84.1404 18.9807C85.8917 18.9807 87.3118 17.5642 87.3118 15.8172C87.3118 14.0703 85.8917 12.6538 84.1404 12.6538C82.3891 12.6538 80.9691 14.0703 80.9691 15.8172C80.9691 17.5642 82.3891 18.9807 84.1404 18.9807Z" fill="#F58220"/>
<path d="M8.06437 44.731V46.1651C7.54371 46.4366 7.01121 46.6402 6.46983 46.7848C5.92846 46.9265 5.39299 46.9973 4.86345 46.9973C4.35462 46.9973 3.86948 46.9295 3.40502 46.7996C2.94353 46.6639 2.50568 46.4691 2.09447 46.2065C1.43181 45.7756 0.917073 45.2238 0.550242 44.5539C0.183411 43.8811 0 43.1552 0 42.3673C0 41.7712 0.121285 41.1928 0.363867 40.6321C0.603491 40.0714 0.949608 39.5815 1.39336 39.1625C1.86669 38.714 2.40215 38.3775 2.99085 38.1562C3.58252 37.9319 4.23334 37.8228 4.94926 37.8228C5.45217 37.8228 5.94622 37.8788 6.44026 37.9939C6.9343 38.109 7.44904 38.289 7.98449 38.5339V39.912C7.41945 39.6051 6.88991 39.3809 6.39588 39.2363C5.89888 39.0917 5.41667 39.0179 4.94926 39.0179C3.91089 39.0179 3.05299 39.3396 2.37554 39.9858C1.69512 40.6291 1.35786 41.4407 1.35786 42.4115C1.35786 43.3706 1.69215 44.1732 2.36073 44.8195C3.02931 45.4658 3.86652 45.7874 4.87826 45.7874C5.39596 45.7874 5.92253 45.7018 6.45207 45.5277C6.97865 45.3507 7.51708 45.0851 8.06437 44.731Z" fill="#F58220"/>
<path d="M11.1527 42.4086C11.1527 42.8601 11.2385 43.2939 11.4071 43.7011C11.5758 44.1142 11.8213 44.4772 12.1408 44.7929C12.4514 45.1116 12.8153 45.3536 13.2324 45.5248C13.6496 45.696 14.0844 45.7815 14.54 45.7815C15.0045 45.7815 15.4452 45.6959 15.8535 45.5307C16.2617 45.3625 16.6286 45.1175 16.951 44.7929C17.2676 44.4772 17.5131 44.1113 17.6847 43.7011C17.8563 43.2909 17.9421 42.8601 17.9421 42.4086C17.9421 41.9571 17.8563 41.5262 17.6876 41.1249C17.519 40.7206 17.2676 40.3517 16.9362 40.0183C16.6197 39.6907 16.2558 39.4429 15.8416 39.2717C15.4304 39.1005 14.9956 39.015 14.5371 39.015C14.0933 39.015 13.6702 39.1005 13.2531 39.2746C12.839 39.4488 12.4662 39.6937 12.1379 40.0183C11.8213 40.3252 11.5758 40.6881 11.4042 41.1042C11.2385 41.5144 11.1527 41.9512 11.1527 42.4086ZM9.79783 42.3613C9.79783 41.7712 9.91912 41.1928 10.1617 40.638C10.4013 40.0803 10.7474 39.5845 11.1941 39.1596C11.6497 38.7228 12.1615 38.3923 12.7325 38.1621C13.3034 37.9349 13.9069 37.8198 14.54 37.8198C15.182 37.8198 15.7943 37.9349 16.3742 38.168C16.951 38.3982 17.4628 38.7287 17.9036 39.1596C18.3651 39.6081 18.7142 40.1068 18.9479 40.6557C19.1786 41.2046 19.297 41.8036 19.297 42.4469C19.297 43.0519 19.1787 43.6332 18.9361 44.188C18.6964 44.7457 18.3562 45.2356 17.9154 45.6576C17.4539 46.0973 16.9392 46.4307 16.3682 46.655C15.7973 46.8822 15.1879 46.9944 14.54 46.9944C13.9069 46.9944 13.3034 46.8763 12.7236 46.6462C12.1467 46.413 11.6349 46.0825 11.1941 45.6576C10.7356 45.212 10.3895 44.7103 10.1528 44.1526C9.91615 43.5949 9.79783 42.9988 9.79783 42.3613Z" fill="#F58220"/>
<path d="M21.0424 46.838V37.9585H22.1488L28.0093 44.8519V37.9585H29.2754V46.838H28.1454L22.3027 39.9386V46.838H21.0424Z" fill="#F58220"/>
<path d="M31.086 46.1471V44.471C31.4883 44.9313 31.8729 45.2648 32.2427 45.4684C32.6066 45.672 33 45.7724 33.4142 45.7724C33.855 45.7724 34.2011 45.6691 34.4555 45.4655C34.7099 45.2589 34.8372 44.9815 34.8372 44.6303C34.8372 44.3441 34.7514 44.0903 34.5798 43.8719C34.4082 43.6565 34 43.3408 33.3491 42.9306C32.3433 42.2814 31.7102 41.7827 31.4558 41.4285C31.1984 41.0744 31.0712 40.6495 31.0712 40.1596C31.0712 39.4691 31.3168 38.9025 31.8049 38.4599C32.296 38.0172 32.9261 37.7959 33.6982 37.7959C34.0413 37.7959 34.3786 37.8461 34.7129 37.9464C35.0442 38.0467 35.3815 38.1972 35.7217 38.4068V39.8468C35.3312 39.534 34.9732 39.3068 34.6389 39.1652C34.3076 39.0235 33.9792 38.9527 33.6479 38.9527C33.2485 38.9527 32.9231 39.0501 32.6717 39.2478C32.4202 39.4455 32.293 39.6993 32.293 40.0062C32.293 40.4459 32.8166 40.9918 33.8639 41.644L34.0562 41.759C34.9082 42.2873 35.4643 42.7535 35.7276 43.1578C35.9909 43.5621 36.124 44.0608 36.124 44.6599C36.124 45.3356 35.8785 45.8963 35.3844 46.339C34.8934 46.7816 34.2632 47 33.4941 47C33.0178 47 32.5829 46.9321 32.1983 46.7963C31.8138 46.6577 31.441 46.4422 31.086 46.1471Z" fill="#F58220"/>
<path d="M40.4315 46.838V39.1123H37.1596V37.9585H44.9666V39.1123H41.6947V46.838H40.4315Z" fill="#F58220"/>
<path d="M46.3095 46.838V37.9585H48.9158C49.8151 37.9585 50.5074 38.171 50.9955 38.593C51.4836 39.0149 51.7262 39.614 51.7262 40.3901C51.7262 40.9744 51.5931 41.4465 51.3239 41.8007C51.0576 42.1548 50.6346 42.4233 50.0577 42.6004C50.2056 42.68 50.3476 42.7863 50.4778 42.922C50.6109 43.0548 50.7795 43.2791 50.9866 43.5919L53.1491 46.8409H51.6108L50.0843 44.5126C49.6258 43.8103 49.256 43.3617 48.9749 43.167C48.6939 42.9722 48.3567 42.8748 47.9662 42.8748H47.5845V46.8409H46.3095V46.838ZM47.5875 41.8066H48.6436C49.2382 41.8066 49.682 41.6915 49.9778 41.4642C50.2707 41.2341 50.4186 40.8859 50.4186 40.4167C50.4186 39.9327 50.2796 39.5845 49.9985 39.3661C49.7175 39.1477 49.2678 39.0385 48.6436 39.0385H47.5875V41.8066Z" fill="#F58220"/>
<path d="M54.3383 37.9585H55.6044V43.0548C55.6044 43.6214 55.634 44.0257 55.6962 44.2618C55.7583 44.4978 55.8618 44.7044 56.0068 44.8785C56.2701 45.1884 56.5807 45.4185 56.9416 45.572C57.3025 45.7225 57.7108 45.7992 58.1693 45.7992C58.9414 45.7992 59.5627 45.6015 60.033 45.2031C60.5034 44.8047 60.7401 44.2795 60.7401 43.6273V37.9585H62.0062V43.6657C62.0062 44.6542 61.6513 45.4569 60.9442 46.0737C60.2372 46.6875 59.3112 46.9973 58.1693 46.9973C57.4948 46.9973 56.8854 46.8793 56.344 46.6373C55.8027 46.3983 55.3441 46.0471 54.9684 45.5897C54.7406 45.3153 54.5779 45.0084 54.4803 44.669C54.3856 44.3296 54.3383 43.8103 54.3383 43.1079V37.9585Z" fill="#F58220"/>
<path d="M66.8045 46.838V39.1123H63.5326V37.9585H71.3425V39.1123H68.0707V46.838H66.8045Z" fill="#F58220"/>
<path d="M73.5999 42.4086C73.5999 42.8601 73.6857 43.2939 73.8543 43.7011C74.023 44.1142 74.2685 44.4772 74.585 44.7929C74.8957 45.1116 75.2595 45.3536 75.6766 45.5248C76.0938 45.696 76.5286 45.7815 76.9842 45.7815C77.4487 45.7815 77.8865 45.6959 78.2977 45.5307C78.706 45.3625 79.0728 45.1175 79.3953 44.7929C79.7118 44.4772 79.9573 44.1113 80.1289 43.7011C80.3005 43.2909 80.3893 42.8601 80.3893 42.4086C80.3893 41.9571 80.3035 41.5262 80.1348 41.1249C79.9662 40.7206 79.7147 40.3517 79.3834 40.0183C79.0669 39.6907 78.703 39.4429 78.2889 39.2717C77.8776 39.1005 77.4457 39.015 76.9842 39.015C76.5405 39.015 76.1145 39.1005 75.7003 39.2746C75.2862 39.4488 74.9134 39.6937 74.585 40.0183C74.2685 40.3252 74.023 40.6881 73.8543 41.1042C73.6857 41.5144 73.5999 41.9512 73.5999 42.4086ZM72.245 42.3613C72.245 41.7712 72.3663 41.1928 72.6089 40.638C72.8515 40.0803 73.1946 39.5845 73.6413 39.1596C74.0939 38.7228 74.6087 38.3923 75.1826 38.1621C75.7536 37.9349 76.3571 37.8198 76.9902 37.8198C77.6321 37.8198 78.2445 37.9349 78.8243 38.168C79.4012 38.3982 79.913 38.7287 80.3538 39.1596C80.8153 39.6081 81.1643 40.1068 81.398 40.6557C81.6318 41.2046 81.7471 41.8036 81.7471 42.4469C81.7471 43.0519 81.6288 43.6332 81.3862 44.188C81.1466 44.7457 80.8064 45.2356 80.3656 45.6576C79.9041 46.0973 79.3893 46.4307 78.8184 46.655C78.2474 46.8822 77.638 46.9944 76.9902 46.9944C76.36 46.9944 75.7536 46.8763 75.1737 46.6462C74.5969 46.413 74.0851 46.0825 73.6443 45.6576C73.1857 45.212 72.8396 44.7103 72.6029 44.1526C72.3633 43.5949 72.245 42.9988 72.245 42.3613Z" fill="#F58220"/>
<path d="M83.5545 46.838V37.9585H86.1638C87.0631 37.9585 87.7553 38.171 88.2435 38.593C88.7316 39.0149 88.9742 39.614 88.9742 40.3901C88.9742 40.9744 88.8411 41.4465 88.5719 41.8007C88.3056 42.1548 87.8826 42.4233 87.3057 42.6004C87.4536 42.68 87.5956 42.7863 87.7257 42.922C87.8589 43.0548 88.0275 43.2791 88.2376 43.5919L90.4001 46.8409H88.8588L87.3323 44.5126C86.8738 43.8103 86.504 43.3617 86.2229 43.167C85.9419 42.9722 85.6046 42.8748 85.2141 42.8748H84.8325V46.8409H83.5545V46.838ZM84.8325 41.8066H85.8886C86.4833 41.8066 86.927 41.6915 87.2228 41.4642C87.5157 41.2341 87.6636 40.8859 87.6636 40.4167C87.6636 39.9327 87.5246 39.5845 87.2435 39.3661C86.9625 39.1477 86.5128 39.0385 85.8886 39.0385H84.8325V41.8066Z" fill="#F58220"/>
<path d="M94.2372 43.0814H97.0091L95.6039 39.8825L94.2372 43.0814ZM91.3055 46.838L95.1631 37.9585H96.092L100 46.838H98.6835L97.5357 44.2234H93.7432L92.6131 46.838H91.3055Z" fill="#F58220"/>
<path d="M30.6572 30.6841H40.7894V14.7076L48.6496 25.5465L56.4626 14.7076V30.6841H66.5948V0.950195H57.2761L48.6496 12.9223L40.0173 0.950195H30.6572V30.6841Z" fill="white"/>
<path d="M28.545 10.9304V2.55258C24.9713 0.852827 21.445 0 17.6909 0C12.4014 0 8.28049 1.38695 4.93463 4.47957C1.63315 7.52496 0.00610352 11.2875 0.00610352 15.8142C0.00610352 20.3381 1.63315 24.0563 4.93463 27.1017C8.14736 30.0586 12.2624 31.6314 17.0549 31.6314C21.2912 31.6314 25.0068 30.8169 28.545 29.0287V20.6066C25.4239 22.5779 22.3946 23.5664 19.1375 23.5664C13.9812 23.5664 10.6353 20.4295 10.6353 15.77C10.6353 11.1989 13.9812 8.02073 19.1375 8.02073C22.3946 8.02073 25.421 8.95914 28.545 10.9304Z" fill="white"/>
<path d="M84.1406 22.144C80.638 22.144 77.798 19.3111 77.798 15.8172C77.798 12.3232 80.638 9.49031 84.1406 9.49031C87.6432 9.49031 90.4832 12.3232 90.4832 15.8172C90.4832 19.3111 87.6432 22.144 84.1406 22.144ZM84.1406 0C75.3869 0 68.287 7.08231 68.287 15.8172C68.287 24.5491 75.384 31.6314 84.1406 31.6314C92.8943 31.6314 99.9972 24.5491 99.9972 15.8172C99.9972 7.08526 92.8943 0 84.1406 0Z" fill="white"/>
</svg>
