<svg width="18" height="18" viewBox="0 0 18 18" fill="none" xmlns="http://www.w3.org/2000/svg">
<path fill-rule="evenodd" clip-rule="evenodd" d="M8.60227 1.85225C8.82194 1.63258 9.17809 1.63258 9.39776 1.85225L16.1478 8.60225C16.3086 8.76313 16.3568 9.00507 16.2697 9.21526C16.1826 9.42545 15.9775 9.5625 15.75 9.5625H14.8125V14.25C14.8125 14.797 14.5952 15.3216 14.2084 15.7084C13.8216 16.0952 13.297 16.3125 12.75 16.3125H5.25002C4.70301 16.3125 4.1784 16.0952 3.79161 15.7084C3.40481 15.3216 3.18752 14.797 3.18752 14.25V9.5625H2.25002C2.02251 9.5625 1.8174 9.42545 1.73033 9.21526C1.64327 9.00507 1.6914 8.76313 1.85227 8.60225L8.60227 1.85225ZM3.60801 8.4375H3.75002C4.06068 8.4375 4.31252 8.68934 4.31252 9V14.25C4.31252 14.4986 4.41129 14.7371 4.5871 14.9129C4.76292 15.0887 5.00138 15.1875 5.25002 15.1875H12.75C12.9987 15.1875 13.2371 15.0887 13.4129 14.9129C13.5887 14.7371 13.6875 14.4986 13.6875 14.25V9C13.6875 8.68934 13.9394 8.4375 14.25 8.4375H14.392L9.00002 3.04549L3.60801 8.4375Z" fill="#6D94E9"/>
<path fill-rule="evenodd" clip-rule="evenodd" d="M8.25 10.3125C8.00136 10.3125 7.7629 10.4113 7.58709 10.5871C7.41127 10.7629 7.3125 11.0014 7.3125 11.25V15.75C7.3125 16.0607 7.06066 16.3125 6.75 16.3125C6.43934 16.3125 6.1875 16.0607 6.1875 15.75V11.25C6.1875 10.703 6.4048 10.1784 6.79159 9.79159C7.17839 9.4048 7.70299 9.1875 8.25 9.1875H9.75C10.297 9.1875 10.8216 9.4048 11.2084 9.79159C11.5952 10.1784 11.8125 10.703 11.8125 11.25V15.75C11.8125 16.0607 11.5607 16.3125 11.25 16.3125C10.9393 16.3125 10.6875 16.0607 10.6875 15.75V11.25C10.6875 11.0014 10.5887 10.7629 10.4129 10.5871C10.2371 10.4113 9.99864 10.3125 9.75 10.3125H8.25Z" fill="#6D94E9"/>
</svg>
