<svg width="18" height="17" viewBox="0 0 18 17" fill="none" xmlns="http://www.w3.org/2000/svg">
<path fill-rule="evenodd" clip-rule="evenodd" d="M8.99538 0.938995C9.20949 0.938995 9.40503 1.06055 9.49979 1.25255L11.6834 5.677L16.5656 6.38456C16.7776 6.41529 16.9537 6.56376 17.0199 6.76751C17.086 6.97126 17.0307 7.1949 16.8772 7.34432L13.3393 10.7881L14.1735 15.6511C14.2097 15.8623 14.1229 16.0756 13.9495 16.2015C13.7762 16.3273 13.5464 16.3437 13.3569 16.2439L9.00033 13.9482L4.63339 16.2441C4.44387 16.3438 4.21422 16.3272 4.041 16.2013C3.86777 16.0755 3.78102 15.8622 3.81722 15.6511L4.65143 10.7881L1.11353 7.34432C0.960021 7.1949 0.904714 6.97126 0.970878 6.76751C1.03704 6.56376 1.21319 6.41529 1.4252 6.38456L6.3074 5.677L8.49096 1.25255C8.58572 1.06055 8.78126 0.938995 8.99538 0.938995ZM8.99538 2.77251L7.18529 6.44019C7.10332 6.60627 6.94485 6.72136 6.76155 6.74793L2.71604 7.33424L5.64823 10.1884C5.78099 10.3177 5.8416 10.504 5.81028 10.6866L5.11874 14.7179L8.73886 12.8146C8.9029 12.7284 9.0989 12.7285 9.26286 12.8149L12.8718 14.7166L12.1805 10.6866C12.1491 10.504 12.2098 10.3177 12.3425 10.1884L15.2747 7.33424L11.2292 6.74793C11.0459 6.72136 10.8874 6.60627 10.8055 6.44019L8.99538 2.77251Z" fill="#6D94E9"/>
</svg>
