<svg width="15" height="18" viewBox="0 0 15 18" fill="none" xmlns="http://www.w3.org/2000/svg">
<path fill-rule="evenodd" clip-rule="evenodd" d="M6.95902 2.20657L1.9042 5.18704C1.89933 5.18991 1.89441 5.19272 1.88945 5.19544C1.53116 5.39237 1.3125 5.7633 1.3125 6.16275V11.6255C1.31331 11.8236 1.36712 12.0178 1.46835 12.1881C1.56972 12.3586 1.71494 12.4989 1.8889 12.5943C1.89919 12.5999 1.9093 12.6059 1.91922 12.6121L6.96546 15.8043C7.13001 15.8917 7.31354 15.9374 7.5 15.9374C7.68646 15.9374 7.86999 15.8917 8.03454 15.8043L13.0808 12.6121C13.0905 12.606 13.1005 12.6001 13.1106 12.5946C13.4686 12.3978 13.6875 12.0262 13.6875 11.6265V6.1635L13.6875 6.16072C13.6885 5.96397 13.6371 5.7705 13.5387 5.60012C13.4403 5.42974 13.2984 5.28858 13.1275 5.19109C13.09 5.16966 13.0556 5.1444 13.0249 5.11603L8.09048 2.20657C7.91687 2.11224 7.7224 2.06281 7.52475 2.06281C7.3271 2.06281 7.13263 2.11224 6.95902 2.20657ZM13.8244 4.30037C13.7925 4.26916 13.7565 4.2414 13.7167 4.21795L8.6542 1.23295C8.64954 1.23021 8.64483 1.22752 8.64009 1.22491C8.29851 1.03658 7.91481 0.937805 7.52475 0.937805C7.13469 0.937805 6.75099 1.03658 6.40941 1.22491C6.40467 1.22752 6.39996 1.23021 6.3953 1.23295L1.33959 4.21395C0.630025 4.60768 0.1875 5.35173 0.1875 6.16275V11.6265L0.187503 11.6284C0.188836 12.0278 0.297197 12.4196 0.501311 12.763C0.702208 13.1009 0.988636 13.3798 1.33158 13.5716L6.38028 16.7654C6.39014 16.7716 6.40018 16.7775 6.41041 16.7831C6.74434 16.9664 7.11909 17.0624 7.5 17.0624C7.88091 17.0624 8.25566 16.9664 8.58959 16.7831C8.59982 16.7775 8.60986 16.7716 8.61972 16.7654L13.6686 13.5715C14.3736 13.1764 14.8125 12.4341 14.8125 11.6265V6.16472" fill="#6D94E9"/>
<path fill-rule="evenodd" clip-rule="evenodd" d="M5.51126 7.01126C6.03871 6.48382 6.75408 6.1875 7.5 6.1875C8.24592 6.1875 8.96129 6.48382 9.48874 7.01126C10.0162 7.53871 10.3125 8.25408 10.3125 9C10.3125 9.74592 10.0162 10.4613 9.48874 10.9887C8.96129 11.5162 8.24592 11.8125 7.5 11.8125C6.75408 11.8125 6.03871 11.5162 5.51126 10.9887C4.98382 10.4613 4.6875 9.74592 4.6875 9C4.6875 8.25408 4.98382 7.53871 5.51126 7.01126ZM7.5 7.3125C7.05245 7.3125 6.62322 7.49029 6.30676 7.80676C5.99029 8.12322 5.8125 8.55245 5.8125 9C5.8125 9.44755 5.99029 9.87678 6.30676 10.1932C6.62322 10.5097 7.05245 10.6875 7.5 10.6875C7.94755 10.6875 8.37678 10.5097 8.69324 10.1932C9.00971 9.87678 9.1875 9.44755 9.1875 9C9.1875 8.55245 9.00971 8.12322 8.69324 7.80676C8.37678 7.49029 7.94755 7.3125 7.5 7.3125Z" fill="#6D94E9"/>
</svg>
